<svg height="512pt" viewBox="-1 0 512 512.11713" width="512pt" xmlns="http://www.w3.org/2000/svg"><path d="m487.765625 66.695312c-7.601563-7.589843-17.359375-12.65625-27.941406-14.511718-3.984375-22.296875-21.804688-39.539063-44.222657-42.785156-22.417968-3.25-44.398437 8.226562-54.546874 28.480468-10.148438 20.25-6.183594 44.726563 9.835937 60.742188l-96.949219 96.90625c3.609375 12.257812 5.199219 25.023437 4.703125 37.792968 12.769531-.496093 25.535157 1.09375 37.792969 4.703126l96.949219-96.949219c20.605469 20.144531 53.585937 19.957031 73.960937-.417969 20.375-20.378906 20.5625-53.355469.417969-73.960938zm0 0" fill="#faedbd"/><path d="m268.863281 286.488281 144.523438-145.414062c16.003906 16.085937 40.515625 20.097656 60.808593 9.953125 20.296876-10.144532 31.796876-32.160156 28.53125-54.617188-3.261718-22.453125-20.558593-40.28125-42.902343-44.226562-3.984375-22.296875-21.804688-39.539063-44.222657-42.785156-22.417968-3.25-44.398437 8.226562-54.546874 28.480468-10.148438 20.25-6.183594 44.726563 9.835937 60.742188l-128.058594 127.125" fill="#faedbd"/><path d="m268.863281 295.167969c-3.484375-.019531-6.621093-2.121094-7.964843-5.335938-1.339844-3.21875-.625-6.925781 1.8125-9.417969l144.523437-145.457031c1.6875-1.550781 3.863281-2.457031 6.152344-2.5625 2.300781 0 4.507812.914063 6.136719 2.542969 13.371093 13.40625 33.824218 16.730469 50.753906 8.257812 16.929687-8.472656 26.523437-26.84375 23.804687-45.578124-2.71875-18.738282-17.136719-33.621094-35.777343-36.9375-3.578126-.636719-6.382813-3.441407-7.019532-7.019532-3.335937-18.613281-18.214844-33.003906-36.929687-35.710937-18.714844-2.707031-37.0625 6.875-45.535157 23.78125-8.472656 16.90625-5.164062 37.339843 8.207032 50.710937 1.632812 1.628906 2.550781 3.839844 2.550781 6.144532 0 2.304687-.917969 4.515624-2.550781 6.144531l-128.078125 127.167969c-2.1875 2.246093-5.414063 3.140624-8.445313 2.339843-3.03125-.804687-5.394531-3.179687-6.179687-6.214843-.785157-3.035157.128906-6.257813 2.390625-8.433594l122.355468-121.488282c-14.8125-19.695312-16.386718-46.347656-3.992187-67.648437s36.347656-33.101563 60.789063-29.949219c24.441406 3.152344 44.617187 20.644532 51.203124 44.390625 23.699219 6.632813 41.132813 26.800781 44.261719 51.210938 3.128907 24.414062-8.652343 48.328125-29.914062 60.722656-21.265625 12.394531-47.878907 10.859375-67.578125-3.890625l-138.847656 139.714844c-1.628907 1.613281-3.832032 2.519531-6.128907 2.515625zm0 0" fill="#fccc88"/><path d="m494.492188 390.625h-52.066407c-4.792969 0-8.679687-3.882812-8.679687-8.675781v-52.070313c0-4.792968-3.886719-8.675781-8.679688-8.675781h-34.710937c-4.792969 0-8.675781 3.882813-8.675781 8.675781v52.070313c0 4.792969-3.886719 8.675781-8.679688 8.675781h-52.066406c-4.792969 0-8.679688 3.886719-8.679688 8.679688v34.710937c0 4.792969 3.886719 8.679687 8.679688 8.679687h52.066406c4.792969 0 8.679688 3.882813 8.679688 8.675782v52.066406c0 4.792969 3.882812 8.679688 8.675781 8.679688h34.710937c4.792969 0 8.679688-3.886719 8.679688-8.679688v-52.066406c0-4.792969 3.886718-8.675782 8.679687-8.675782h52.066407c4.792968 0 8.675781-3.886718 8.675781-8.679687v-34.710937c0-4.792969-3.882813-8.679688-8.675781-8.679688zm0 0" fill="#23b972"/><path d="m398.816406 121.835938c-.515625-.003907-1.027344-.046876-1.535156-.132813-12.332031-2.183594-23.6875-8.117187-32.523438-16.992187-3.390624-3.386719-3.394531-8.882813-.003906-12.273438 3.386719-3.390625 8.882813-3.394531 12.273438-.003906 6.332031 6.347656 14.46875 10.589844 23.300781 12.148437 4.414063.800781 7.488281 4.828125 7.097656 9.296875s-4.125 7.902344-8.609375 7.921875zm0 0" fill="#fccc88"/><path d="m475.589844 66.285156c-1.433594.003906-2.847656-.355468-4.113282-1.039062-10.964843-5.914063-23.925781-6.90625-35.664062-2.734375-4.484375 1.492187-9.335938-.875-10.917969-5.324219-1.582031-4.453125.683594-9.351562 5.101563-11.023438 16.371094-5.820312 34.441406-4.433593 49.734375 3.816407 3.492187 1.894531 5.25 5.914062 4.273437 9.761719-.976562 3.851562-4.441406 6.546874-8.414062 6.542968zm0 0" fill="#fccc88"/><path d="m294.605469 311.5625c-1.679688-12.871094 2.027343-25.863281 10.238281-35.914062 8.210938-10.046876 20.203125-16.265626 33.148438-17.1875h.523437c22.214844-.972657-15.457031-27.050782-59.878906-25.113282 1.933593-44.433594-24.144531-82.105468-25.113281-59.878906v.519531c-.921876 12.945313-7.140626 24.9375-17.191407 33.152344-10.050781 8.210937-23.039062 11.914063-35.910156 10.238281-46.460937-5.371094-100.734375 14.308594-142.953125 56.527344-64.5625 64.53125-76.453125 157.289062-26.578125 207.167969 49.871094 49.882812 142.636719 37.984375 207.183594-26.5625 42.21875-42.191407 61.902343-96.488281 56.53125-142.949219zm0 0" fill="#d69564"/><g fill="#fccc88"><path d="m78.703125 303.847656c-3.519531.007813-6.695313-2.109375-8.042969-5.363281-1.34375-3.253906-.589844-7 1.910156-9.476563 9.351563-9.367187 19.660157-17.726562 30.761719-24.933593 2.609375-1.6875 5.921875-1.851563 8.683594-.4375 2.765625 1.417969 4.566406 4.199219 4.722656 7.304687.15625 3.101563-1.355469 6.050782-3.964843 7.738282-10.074219 6.523437-19.4375 14.085937-27.933594 22.5625-1.617188 1.648437-3.824219 2.585937-6.136719 2.605468zm0 0"/><path d="m143.667969 262.53125c-4.242188.003906-7.867188-3.0625-8.566407-7.25-.699218-4.183594 1.730469-8.261719 5.746094-9.636719 15.746094-5.597656 32.398438-8.199219 49.101563-7.671875 4.789062.199219 8.511719 4.25 8.3125 9.042969-.203125 4.792969-4.25 8.511719-9.042969 8.3125-14.539062-.429687-29.03125 1.859375-42.730469 6.75-.910156.308594-1.863281.460937-2.820312.453125zm0 0"/></g></svg>