<svg height="512pt" viewBox="0 0 512 512" width="512pt" xmlns="http://www.w3.org/2000/svg"><path d="m416 512h-320c-53.023438 0-96-42.976562-96-96v-320c0-53.023438 42.976562-96 96-96h320c53.023438 0 96 42.976562 96 96v320c0 53.023438-42.976562 96-96 96zm0 0" fill="#ffe6e2"/><path d="m309.328125 384h-149.328125c-17.648438 0-32-14.351562-32-32v-149.328125c0-17.648437 14.351562-32 32-32h85.328125c5.886719 0 10.671875 4.785156 10.671875 10.671875s-4.769531 10.65625-10.671875 10.65625h-85.328125c-5.886719 0-10.671875 4.785156-10.671875 10.671875v149.328125c0 5.886719 4.785156 10.671875 10.671875 10.671875h149.328125c5.886719 0 10.671875-4.785156 10.671875-10.671875v-85.34375c0-5.886719 4.769531-10.65625 10.671875-10.65625 5.886719 0 10.671875 4.785156 10.671875 10.671875v85.328125c-.015625 17.648438-14.367188 32-32.015625 32zm0 0" fill="#fd907e"/><g fill="#fc573b"><path d="m312.398438 161.886719-84.398438 84.402343c-.753906.75-1.246094 1.695313-1.457031 2.71875l-7.535157 37.710938c-.351562 1.746094.191407 3.554688 1.457032 4.816406 1.007812 1.007813 2.367187 1.570313 3.773437 1.570313.335938 0 .707031-.035157 1.042969-.113281l37.710938-7.535157c1.039062-.210937 1.984374-.722656 2.734374-1.457031l84.402344-84.398438zm0 0"/><path d="m376.191406 135.808594c-10.398437-10.402344-27.3125-10.402344-37.710937 0l-14.769531 14.765625 37.714843 37.714843 14.765625-14.769531c5.039063-5.023437 7.808594-11.726562 7.808594-18.847656s-2.769531-13.824219-7.808594-18.863281zm0 0"/></g></svg>