<svg id="Capa_1" enable-background="new 0 0 511.935 511.935" height="512" viewBox="0 0 511.935 511.935" width="512" xmlns="http://www.w3.org/2000/svg"><g><g><path d="m436.986 356.516c-.345 4.652-1.624 9.053-3.656 13.007-97.389 6.912-194.785 6.48-292.174-1.286-1.671-3.617-2.722-7.563-3.036-11.72-7.32-97.773-7.735-195.531-1.247-293.296.392-5.915.808-11.822 1.247-17.73 1.224-16.388 13.996-29.599 30.321-31.411 79.408-8.81 158.816-8.81 238.223 0 16.333 1.812 29.097 15.023 30.321 31.411 1.852 24.712 3.256 49.432 4.221 74.144 3.1 78.96 1.688 157.92-4.22 236.881z" fill="#e7ecf6"/><path d="m394.936 394.692c-.351 4.66-1.627 9.059-3.655 13.015-97.394 6.91-194.789 6.478-292.183-1.295-1.667-3.615-2.722-7.562-3.033-11.72-6.176-82.431-7.432-164.841-3.786-247.272.673-15.335 1.527-30.681 2.541-46.016.392-5.915.803-11.83 1.245-17.735 1.225-16.39 14-29.596 30.319-31.414 79.408-8.807 158.816-8.807 238.224 0 16.34 1.818 29.104 15.024 30.329 31.414 1.848 24.715 3.254 49.43 4.218 74.146.663 16.822 1.115 33.633 1.366 50.445.923 62.143-.935 124.287-5.585 186.432z" fill="#f9f6f6"/><path d="m394.936 394.692c-.351 4.66-1.627 9.059-3.655 13.015-97.394 6.91-194.789 6.478-292.183-1.295-1.667-3.615-2.722-7.562-3.033-11.72-6.176-82.431-7.432-164.841-3.786-247.272 51.62-7.492 97.937-7.612 142.416-.351 13.397 2.189 23.741 13.046 25.257 26.523.201 1.747.392 3.495.583 5.242 1.687 15.476 14.793 27.176 30.359 27.095 36.545-.171 73.081.603 109.626 2.33.924 62.144-.934 124.288-5.584 186.433z" fill="#e7ecf6"/><path d="m458.167 425.252-.008.008c-1.126 15.172-2.541 30.337-4.23 45.509-1.606 14.452-13.31 25.693-27.804 26.852-113.434 9.13-226.884 9.13-340.318 0-14.568-1.167-26.215-12.515-27.829-27.034-10.355-93.013-10.272-186.027.232-279.04 1.548-13.691 12.176-24.609 25.809-26.612 52.156-7.681 98.874-7.864 143.729-.538 13.401 2.185 23.74 13.037 25.263 26.521.199 1.747.389 3.493.579 5.24 1.689 15.479 14.792 27.175 30.362 27.1 48.994-.232 97.988 1.242 146.982 4.412 15.313.993 27.473 13.236 28.408 28.557 3.435 56.344 3.046 112.681-1.175 169.025z" fill="#e7a561"/><path d="m107.809 499.29c-7.331-.513-14.67-1.069-22.001-1.659-14.567-1.172-26.21-12.523-27.826-27.039-10.359-93.016-10.273-186.024.231-279.04 1.548-13.686 12.172-24.61 25.807-26.612 8.905-1.309 17.656-2.404 26.269-3.276-8.947 4.79-15.294 13.737-16.483 24.259-10.923 96.746-11.018 193.5-.24 290.246 1.079 9.725 6.485 18.082 14.243 23.121z" fill="#e49542"/></g><g><path d="m466.83 255.77c-.745-12.139-7.197-22.745-16.695-29.169.437-35.621-.041-71.681-1.438-107.262-.963-24.69-2.388-49.726-4.232-74.413-1.497-19.986-17.045-36.092-36.971-38.298-79.585-8.837-160.292-8.837-239.877 0-19.71 2.182-35.126 17.964-36.909 37.642-1.717.182-3.436.345-5.151.535-19.923 2.21-35.472 18.318-36.973 38.307-.413 5.554-.82 11.374-1.243 17.787-1.249 18.689-2.236 37.632-2.971 56.42-.48.07-.953.129-1.434.199-17.026 2.497-30.257 16.146-32.174 33.188-8.74 77.301-10.297 155.714-4.627 233.061.303 4.131 3.908 7.24 8.027 6.932 4.132-.303 7.234-3.897 6.932-8.028-5.602-76.422-4.062-153.899 4.573-230.283 1.156-10.283 9.152-18.519 19.449-20.028 51.263-7.549 97.521-7.733 141.425-.557 10.05 1.634 17.872 9.843 19.021 19.97.198 1.735.387 3.459.575 5.201 2.107 19.292 18.286 33.788 37.677 33.787h.175c48.592-.226 97.876 1.25 146.461 4.395 11.497.743 20.7 10.001 21.407 21.531 3.388 55.647 3.002 112.053-1.146 167.65-.016.124-.028.248-.037.372-1.089 14.748-2.504 29.966-4.205 45.237-1.199 10.829-10.007 19.324-20.947 20.2-112.506 9.055-226.602 9.055-339.123 0-10.932-.871-19.751-9.444-20.972-20.383-.666-5.978-1.321-12.294-1.949-18.773-.398-4.123-4.061-7.139-8.188-6.742-4.122.399-7.141 4.065-6.741 8.188.635 6.55 1.298 12.938 1.971 18.988 2.017 18.072 16.605 32.234 34.683 33.674 56.664 4.561 113.706 6.84 170.767 6.84 57.046 0 114.11-2.281 170.754-6.84 18.092-1.448 32.667-15.537 34.655-33.496 1.708-15.327 3.131-30.609 4.229-45.431.015-.119.026-.239.036-.359 4.222-56.391 4.621-113.599 1.186-170.042zm-58.692-36.947c-.204-20.395-.693-40.978-1.49-61.307-.774-19.831-1.842-39.814-3.172-59.395-.28-4.133-3.867-7.257-7.99-6.975-4.133.281-7.256 3.858-6.975 7.991 1.319 19.438 2.379 39.277 3.148 58.965.779 19.883 1.26 40.007 1.469 59.959-36.406-1.695-72.997-2.473-109.208-2.303-.036 0-.07 0-.106 0-11.714 0-21.492-8.76-22.765-20.408-.19-1.765-.383-3.52-.584-5.279-.333-2.935-1.012-5.77-1.983-8.47h90.809c4.143 0 7.5-3.358 7.5-7.5s-3.357-7.5-7.5-7.5h-100.744c-5.332-4.944-12.085-8.385-19.593-9.606-40.653-6.643-83.174-7.188-129.493-1.666.719-17.807 1.665-35.735 2.847-53.439.421-6.377.824-12.156 1.234-17.662.961-12.792 10.915-23.103 23.669-24.517 78.493-8.708 158.084-8.708 236.565 0 8.467.94 16.042 5.92 20.262 13.321 2.053 3.599 6.636 4.852 10.23 2.8 3.599-2.052 4.853-6.632 2.801-10.23-6.59-11.556-18.417-19.332-31.639-20.799-72.745-8.072-146.431-8.74-219.349-2.055 2.269-11.225 11.549-19.925 23.189-21.214 78.486-8.715 158.08-8.715 236.57 0 12.756 1.412 22.709 11.719 23.665 24.508 1.833 24.509 3.247 49.366 4.203 73.881 1.312 33.399 1.806 67.222 1.492 100.7-1.242-.207-2.503-.358-3.783-.441-7.742-.498-15.507-.942-23.279-1.359z"/><path d="m207.325 469.085c3.896 0 7.698-.998 11.287-2.991 7.96-4.418 12.904-12.917 12.904-22.179v-70.269c0-4.142-3.357-7.5-7.5-7.5s-7.5 3.358-7.5 7.5v70.269c0 3.816-1.986 7.289-5.185 9.064-6.201 3.444-12.641-2.634-13.003-2.983-2.922-2.901-7.644-2.905-10.569.003-2.938 2.919-2.953 7.668-.034 10.606.367.37 3.737 3.679 8.887 6.026 3.589 1.637 7.189 2.454 10.713 2.454z"/><path d="m396.225 366.146h-25.539c-4.143 0-7.5 3.358-7.5 7.5v40.485.065 47.37c0 1.995.795 3.908 2.209 5.315 1.405 1.4 3.308 2.185 5.291 2.185h.033c.002 0 23.492-.104 29.966-.104 17.185 0 31.165-13.98 31.165-31.165 0-10.98-5.712-20.644-14.316-26.197 4.007-4.809 6.421-10.989 6.421-17.723.001-15.291-12.439-27.731-27.73-27.731zm0 15c7.02 0 12.73 5.711 12.73 12.73s-5.711 12.73-12.73 12.73c-1.882 0-5.43.01-9.296.024h-8.743v-25.485h18.039zm4.46 72.815c-4.083 0-15.015.042-22.499.073v-32.37c2.708-.011 5.821-.023 8.754-.034h13.745c8.913 0 16.165 7.252 16.165 16.166s-7.252 16.165-16.165 16.165z"/><path d="m299.169 469.065c28.375 0 51.46-23.085 51.46-51.46s-23.085-51.46-51.46-51.46-51.46 23.085-51.46 51.46 23.085 51.46 51.46 51.46zm0-87.919c20.104 0 36.46 16.356 36.46 36.46s-16.355 36.46-36.46 36.46-36.46-16.356-36.46-36.46 16.355-36.46 36.46-36.46z"/><path d="m349.29 123.529h-194.944c-4.143 0-7.5 3.358-7.5 7.5s3.357 7.5 7.5 7.5h194.944c4.143 0 7.5-3.358 7.5-7.5s-3.358-7.5-7.5-7.5z"/></g></g></svg>