<svg height="512" viewBox="0 0 512 512" width="512" xmlns="http://www.w3.org/2000/svg"><g id="Filled_Outline" data-name="Filled Outline"><path d="m480.971 239.029-90.51-90.509a24 24 0 0 0 -33.941 0 24 24 0 0 0 0 33.941l49.539 49.539h-262.059a24 24 0 0 0 -24 24 24 24 0 0 0 24 24h262.059l-49.539 49.539a24 24 0 0 0 33.941 33.941l90.51-90.51a24 24 0 0 0 0-33.941z" fill="#f57c01"/><path d="m304 392a24 24 0 0 0 -24 24v24h-208v-368h208v24a24 24 0 0 0 48 0v-32a40 40 0 0 0 -40-40h-224a40 40 0 0 0 -40 40v384a40 40 0 0 0 40 40h224a40 40 0 0 0 40-40v-32a24 24 0 0 0 -24-24z" fill="#ff9800"/><path d="m373.49 378.5a31.989 31.989 0 0 1 -22.627-54.613l35.882-35.887h-242.745a32 32 0 0 1 0-64h242.745l-35.883-35.882a32 32 0 0 1 45.255-45.255l90.511 90.51a32 32 0 0 1 0 45.255l-90.509 90.509a31.9 31.9 0 0 1 -22.629 9.363zm-229.49-138.5a16 16 0 0 0 0 32h262.059a8 8 0 0 1 5.657 13.657l-49.539 49.543a16 16 0 1 0 22.628 22.627l90.508-90.509a16 16 0 0 0 0-22.628l-90.513-90.513a16 16 0 1 0 -22.624 22.623l49.54 49.539a8 8 0 0 1 -5.657 13.661z"/><path d="m288 496h-224a48.054 48.054 0 0 1 -48-48v-384a48.054 48.054 0 0 1 48-48h224a48.054 48.054 0 0 1 48 48v32a32 32 0 0 1 -64 0v-16h-192v352h192v-16a32 32 0 0 1 64 0v32a48.054 48.054 0 0 1 -48 48zm-224-464a32.036 32.036 0 0 0 -32 32v384a32.036 32.036 0 0 0 32 32h224a32.036 32.036 0 0 0 32-32v-32a16 16 0 0 0 -32 0v24a8 8 0 0 1 -8 8h-208a8 8 0 0 1 -8-8v-368a8 8 0 0 1 8-8h208a8 8 0 0 1 8 8v24a16 16 0 0 0 32 0v-32a32.036 32.036 0 0 0 -32-32z"/></g></svg>