<svg id="Capa_1" enable-background="new 0 0 511.995 511.995" height="512" viewBox="0 0 511.995 511.995" width="512" xmlns="http://www.w3.org/2000/svg"><g><g><path d="m121.958 438.073v66.422h256.08v-66.422c-13.634 0-244.054 0-256.08 0z" fill="#4f66d0"/><path d="m368.037 443.246v61.249h22v-66.494l-13.859-5.592z" fill="#314dc9"/><path d="m379.315 253.3-5.253-63.888c-4.668-56.771-41.042-102.949-89.39-119.167-7.547 0-58.976 0-67.368 0-48.338 16.225-84.703 62.403-89.371 119.167l-5.253 63.888c-3.754 45.658 8.282 91.202 33.813 127.947l30.143 43.383h128.723l30.143-43.383c25.532-36.745 37.568-82.289 33.813-127.947z" fill="#aa6a51"/><path d="m389.315 253.3-5.253-63.888c-4.668-56.763-41.033-102.942-89.371-119.167h-22.019c48.348 16.218 84.722 62.396 89.39 119.167l5.253 63.888c3.754 45.658-8.282 91.202-33.813 127.947l-30.143 43.383h22l30.143-43.383c25.532-36.745 37.568-82.289 33.813-127.947z" fill="#935b44"/><path d="m345.747 368.832c-8.932-3.598-16.692-4.632-25.676-4.632h-150.147c-26.491 0-47.966 21.475-47.966 47.966v25.907l133.889 31.922 112.191-26.749 11.951-8.899v-21.689c0-9.776-3.545-19.221-9.977-26.583-6.619-7.576-14.933-13.484-24.265-17.243z" fill="#6c7fd8"/><path d="m264.699 473.927 62.194-109.727h-141.791l62.194 109.728c3.832 6.759 13.571 6.759 17.403-.001z" fill="#d5daf3"/><path d="m286.547 264.024h-61.099v87.971l-10.398 6.781v5.423l37.466 66.18c1.532 2.706 5.43 2.706 6.962 0l37.466-66.18v-5.547l-10.398-10.059v-84.569z" fill="#ffa78f"/><path d="m215.05 358.776c12.49 5.038 26.134 7.817 40.428 7.817h.736c14.41 0 28.158-2.825 40.731-7.941v-94.628h-81.895z" fill="#f89580"/><path d="m200.085 258.131h-52.751c-20.281 0-36.722-16.441-36.722-36.722v-.226c0-20.281 16.441-36.722 36.722-36.722h52.751z" fill="#ffa78f"/><path d="m311.91 184.462h52.751c20.281 0 36.722 16.441 36.722 36.722v.226c0 20.281-16.441 36.722-36.722 36.722h-52.751z" fill="#f89580"/><path d="m256.846 348.251c55.693-4.398 99.517-50.983 99.517-107.806v-38.335c0-56.823-43.824-103.407-99.517-107.806-64.827 0-109.517 50.891-109.517 107.806v38.335c0 56.823 43.824 103.407 99.517 107.806z" fill="#ffcebf"/><path d="m246.846 94.304c55.693 4.398 99.517 50.983 99.517 107.806v38.335c0 56.823-43.824 103.407-99.517 107.806 64.882 5.122 117.517-45.638 117.517-107.806v-38.335c0-62.105-52.575-112.939-117.517-107.806z" fill="#ffb09e"/><path d="m249.998 16.948h-18.231l-115.834 48.19c-6.204 2.581-6.204 11.37 0 13.951l137.163 57.064c1.857.773 3.946.773 5.804 0l121.668-50.618 3.11-15.291z" fill="#6c7fd8"/><path d="m396.062 65.139-137.162-57.064c-1.857-.773-3.946-.773-5.804 0l-21.329 8.874 7.133 3.126 137.163 57.064c3.623 1.507 5.114 5.128 4.505 8.397l15.495-6.446c6.203-2.582 6.203-11.37-.001-13.951z" fill="#4f66d0"/><g><path d="m329.664 273.131h-17.877c-4.142 0-7.5-3.358-7.5-7.5s3.358-7.5 7.5-7.5h17.877c4.142 0 7.5 3.358 7.5 7.5s-3.358 7.5-7.5 7.5z" fill="#fe8f83"/></g><g><path d="m182.331 273.131h17.877c4.142 0 7.5-3.358 7.5-7.5s-3.358-7.5-7.5-7.5h-17.877c-4.142 0-7.5 3.358-7.5 7.5s3.358 7.5 7.5 7.5z" fill="#fe8f83"/></g><path d="m344.874 107.171h-177.753c-2.554 0-4.624-2.07-4.624-4.624v-27.678c0-2.554 2.07-4.624 4.624-4.624h177.753c2.554 0 4.624 2.07 4.624 4.624v27.678c0 2.554-2.071 4.624-4.624 4.624z" fill="#4f66d0"/><path d="m358.998 136.267v.033c-15.508-31.481-43.104-55.482-76.359-66.055-5.11 0-30.783 0-49.69 0h-15.625c-1.993 0-3.504 0-4.375 0v1.483c-46.154 16.569-80.489 59.314-85.015 111.505l-.536 6.179h36.707c24.929 0 46.763-12.564 58.844-31.378 12.081 18.814 33.914 31.378 58.844 31.378h90.806c-1.705-19.648-4.394-34.455-13.601-53.145z" fill="#aa6a51"/><path d="m370.998 136.267v.033c-15.508-31.481-43.104-55.482-76.359-66.055h-22c33.255 10.573 60.851 34.574 76.359 66.055v-.033c9.218 18.712 11.903 33.57 13.6 53.145h22c-1.704-19.648-4.393-34.455-13.6-53.145z" fill="#935b44"/><path d="m330.874 70.245c-7.8 0-157.086 0-163.753 0-2.554 0-4.624 2.07-4.624 4.624v27.678c0 2.554 2.07 4.624 4.624 4.624h163.753c2.553 0 4.623-2.07 4.623-4.624v-27.678c.001-2.554-2.07-4.624-4.623-4.624z" fill="#4f66d0"/><path d="m344.874 70.245h-22c2.554 0 4.624 2.07 4.624 4.624v27.678c0 2.554-2.07 4.624-4.624 4.624h22c2.554 0 4.624-2.07 4.624-4.624v-27.678c0-2.554-2.071-4.624-4.624-4.624z" fill="#314dc9"/><path d="m342.071 364.2h-22c26.491 0 47.966 21.475 47.966 47.966v31.08l22-5.245v-25.835c0-26.491-21.475-47.966-47.966-47.966z" fill="#4f66d0"/></g><g><path d="m279.047 265.104c-4.142 0-7.5 3.358-7.5 7.5 0 8.574-6.976 15.549-15.549 15.549s-15.549-6.976-15.549-15.549c0-4.142-3.358-7.5-7.5-7.5s-7.5 3.358-7.5 7.5c0 16.845 13.705 30.549 30.549 30.549s30.549-13.705 30.549-30.549c0-4.142-3.358-7.5-7.5-7.5z"/><path d="m308.93 248.094c4.142 0 7.5-3.358 7.5-7.5v-12.7c3.279-.801 5.713-3.759 5.713-7.286 0-4.142-3.358-7.5-7.5-7.5h-5.713c-4.142 0-7.5 3.358-7.5 7.5v19.986c0 4.142 3.358 7.5 7.5 7.5z"/><path d="m203.065 213.108h-5.713c-4.142 0-7.5 3.358-7.5 7.5 0 3.526 2.434 6.484 5.713 7.286v12.7c0 4.142 3.358 7.5 7.5 7.5s7.5-3.358 7.5-7.5v-19.986c0-4.142-3.358-7.5-7.5-7.5z"/><path d="m408.883 221.184c0-13.668-6.407-26.542-17.037-34.857-.91-9.749-.668 5.866-.668-97.082l7.765-3.23c5.633-2.344 9.272-7.8 9.272-13.9s-3.64-11.557-9.272-13.9l-137.164-57.065c-3.687-1.534-7.882-1.533-11.564 0l-28.145 11.709c-3.824 1.591-5.635 5.981-4.044 9.806s5.979 5.634 9.806 4.044l28.187-11.709 137.186 57.038-.023.127c-9.931 4.132-34.231 14.241-36.184 15.054v-12.35c0-6.685-5.438-12.124-12.124-12.124h-177.752c-6.685 0-12.124 5.438-12.124 12.124v12.358l-36.207-15.036.023-.127 76.703-31.911c3.824-1.591 5.635-5.981 4.044-9.806-1.592-3.824-5.981-5.634-9.806-4.044l-76.703 31.911c-5.633 2.344-9.272 7.8-9.272 13.9s3.64 11.557 9.272 13.9l41.144 17.118c-21.073 24.111-31.329 51.692-34.061 83.206-10.622 8.315-17.024 21.183-17.024 34.846v.226c0 11.471 4.329 22.285 12.187 30.491-2.923 42.477 4.723 80.048 23.325 114.506-14.58 10.004-24.166 26.781-24.166 45.76v92.329c0 4.142 3.358 7.5 7.5 7.5h198.491c4.142 0 7.5-3.358 7.5-7.5s-3.358-7.5-7.5-7.5h-190.99v-49.424l109.01 25.99c2.193 3.869 6.099 12.936 17.53 12.936 11.377 0 15.277-8.96 17.577-13.018l108.963-25.979v49.496h-27.089c-4.142 0-7.5 3.358-7.5 7.5s3.358 7.5 7.5 7.5h34.589c4.142 0 7.5-3.358 7.5-7.5 0-11.215 0-81.687 0-92.329 0-18.577-9.244-35.521-24.166-45.76 18.593-34.441 26.241-71.992 23.33-114.442 8.012-8.423 12.182-19.66 12.182-30.555v-.227zm-32.705-125.699v34.504c-5.052-9.654-11.2-18.667-18.371-26.86 5.064-2.108-.954.396 18.371-7.644zm-206.18-17.74h172v21.926h-172c0-40.529 0-4.719 0-21.926zm-5.674 36.603c2.162.509 180.959.561 183.353-.001 22.084 25.979 28.501 56.665 28.501 67.565-9.297 0-82.534 0-94.386 0-21.664 0-41.302-10.441-52.533-27.931-1.38-2.148-3.758-3.447-6.311-3.447s-4.931 1.299-6.311 3.447c-11.23 17.489-30.869 27.93-52.533 27.93-15.314 0-21.537 0-28.513 0 2.566-24.928 12.671-48.633 28.733-67.563zm83.113 226.426c-48.583-3.835-88.434-43.113-92.298-92.536-.565-7.336-.32-47.828-.174-51.326h9.139c23.128 0 44.439-9.698 58.844-26.376 14.405 16.678 35.716 26.377 58.844 26.377h74.933c.042 1.004.719 45.629-.714 56.547-.004.032-.01.064-.014.096-6.863 51.885-52.835 91.616-108.56 87.218zm42.008 10.489v10.961c-3.795 6.704-29.517 52.138-33.447 59.081l-33.447-59.081v-10.89c21.386 6.335 45.122 6.42 66.894-.071zm-160.821-107.444c-6.904-5.704-10.512-14.205-10.512-22.41v-.226c0-9.737 4.921-18.869 12.961-24.272h8.88c-.181 5.036-.15 13.978-.137 24.495.022 19.906-.085 22.156.362 27.98.006.074.007.148.013.221-4.464-1.121-8.279-3.109-11.423-5.671-.047-.039-.096-.077-.144-.117zm1.179 18.204c3.935 1.675 8.16 2.76 12.714 3.269 7.968 36.379 32.824 65.764 65.034 80.436v10.972c-40.356 0-39.103-.106-42.991.264-4.262.412-8.498 1.308-12.538 2.691-16.02-29.54-23.333-61.643-22.219-97.632zm-.345 170.128v-19.985c0-22.409 18.257-40.466 40.467-40.466h10.808c4.979 8.784 42.343 74.704 47.63 84.032zm128.716 38.078c-.958 1.69-3.387 1.704-4.354 0-1.362-2.403-52.13-91.972-55.847-98.529h12.703c4.025 7.11 31.634 55.878 35.314 62.378 1.903 3.357 5.633 5.831 10.006 5.831 4.136 0 7.971-2.236 10.008-5.834 6.638-11.725 28.526-50.387 35.312-62.375h12.704zm124.364-58.063v19.913l-98.857 23.57 47.583-83.949h10.808c22.243 0 40.466 18.092 40.466 40.466zm-22.564-52.511c-5.435-1.861-11.642-2.955-17.903-2.955-12.527 0-25.06 0-37.626 0v-11.083c33.911-15.57 57.379-46.458 64.895-80.318 4.649-.501 8.902-1.575 12.853-3.254 1.11 35.979-6.203 68.076-22.219 97.61zm33.909-138.246c0 11.997-7.784 24.631-22.385 28.22.466-5.888.355-9.041.378-28.231.012-9.837.046-19.415-.139-24.485h9.185c8.041 5.403 12.961 14.535 12.961 24.271z"/></g></g></svg>