<?xml version="1.0" encoding="iso-8859-1"?>
<!-- Generator: Adobe Illustrator 16.0.0, SVG Export Plug-In . SVG Version: 6.00 Build 0)  -->
<!DOCTYPE svg PUBLIC "-//W3C//DTD SVG 1.1//EN" "http://www.w3.org/Graphics/SVG/1.1/DTD/svg11.dtd">
<svg version="1.1" id="Capa_1" xmlns="http://www.w3.org/2000/svg" xmlns:xlink="http://www.w3.org/1999/xlink" x="0px" y="0px"
	 width="57.149px" height="57.15px" viewBox="0 0 57.149 57.15" style="enable-background:new 0 0 57.149 57.15;"
	 xml:space="preserve">
<g>
	<g>
		<g>
			<path d="M13.109,35.265H3.558C1.596,35.265,0,33.416,0,31.144V4.966c0-2.271,1.596-4.119,3.558-4.119h9.551
				c1.962,0,3.558,1.848,3.558,4.119v26.178C16.667,33.416,15.071,35.265,13.109,35.265z M3.558,3.847C3.367,3.847,3,4.283,3,4.966
				v26.178c0,0.684,0.366,1.121,0.558,1.121h9.551c0.191,0,0.558-0.438,0.558-1.121V4.966c0-0.684-0.366-1.119-0.558-1.119H3.558z"
				/>
		</g>
		<g>
			<path d="M31.73,56.302c-3.01,0-5.458-2.447-5.458-5.457c0-0.203,0.012-0.406,0.035-0.611c-0.036-0.18-0.04-0.363-0.001-0.541
				c1.043-4.781-1.13-10.211-2.518-13.021c-0.12-0.242-0.237-0.478-0.349-0.691c-0.21-0.243-0.494-0.407-0.814-0.467h-0.411
				c-0.059,0-0.152-0.006-0.224-0.015c-2.278-0.129-4.038-1.979-4.038-4.248V5.109c0-2.35,1.912-4.262,4.262-4.262h29.475
				c0.13,0,0.255,0.016,0.373,0.047c2.761,0.291,4.881,2.615,4.881,5.412c0,1.504-0.612,2.869-1.607,3.857
				c1.112,1,1.813,2.449,1.813,4.059c0,1.557-0.655,2.963-1.704,3.959c1.049,0.994,1.704,2.402,1.704,3.959
				s-0.655,2.963-1.704,3.957c1.049,0.996,1.704,2.402,1.704,3.959c0,3.01-2.448,5.459-5.458,5.459l-12.607-0.002
				c3.525,10.961-2.736,18.311-3.021,18.637c-0.006,0.006-0.012,0.012-0.016,0.021C35.014,55.507,33.412,56.302,31.73,56.302z
				 M29.333,49.857c0.026,0.16,0.026,0.322-0.007,0.482c-0.036,0.168-0.055,0.338-0.055,0.506c0,1.355,1.104,2.457,2.459,2.457
				c0.789,0,1.512-0.373,1.984-1.023c0.047-0.065,0.1-0.127,0.156-0.184c0.695-0.855,5.824-7.646,1.674-17.5
				c-0.195-0.463-0.146-0.992,0.133-1.41c0.277-0.42,0.746-0.672,1.25-0.672h14.762l0,0c0.656,0,1.273-0.254,1.738-0.719
				c0.463-0.465,0.719-1.082,0.719-1.738c0-1.355-1.103-2.459-2.457-2.459c-0.828,0-1.5-0.672-1.5-1.5s0.672-1.5,1.5-1.5
				c1.354,0,2.457-1.102,2.457-2.457s-1.103-2.459-2.457-2.459c-0.828,0-1.5-0.672-1.5-1.5s0.672-1.5,1.5-1.5
				c1.354,0,2.457-1.104,2.457-2.459s-1.103-2.457-2.457-2.457c-0.828,0-1.5-0.672-1.5-1.5c0-0.799,0.625-1.477,1.422-1.52
				c1.307-0.068,2.331-1.141,2.331-2.439c0-1.301-1.024-2.371-2.331-2.439c-0.061-0.004-0.118-0.01-0.176-0.02H22.214
				c-0.695,0-1.262,0.566-1.262,1.262v26.143c0,0.677,0.533,1.228,1.214,1.253c0.03,0.002,0.077,0.006,0.122,0.01h0.449
				c0.063,0,0.127,0.004,0.189,0.012c1.201,0.154,2.26,0.771,2.981,1.74c0.045,0.063,0.086,0.127,0.122,0.195
				c0.143,0.27,0.294,0.567,0.448,0.883C28.33,39.093,30.295,44.609,29.333,49.857z"/>
		</g>
	</g>
</g>
<g>
</g>
<g>
</g>
<g>
</g>
<g>
</g>
<g>
</g>
<g>
</g>
<g>
</g>
<g>
</g>
<g>
</g>
<g>
</g>
<g>
</g>
<g>
</g>
<g>
</g>
<g>
</g>
<g>
</g>
</svg>
